HIERARCHY
ROOT base
{
	OFFSET 0.0 0.0 0.0
	CHANNELS 6 Xposition Yposition Zposition Zrotation Yrotation Xrotation
	JOINT root
	{
		OFFSET 0 0 0
		CHANNELS 6 Xposition Yposition Zposition Zrotation Yrotation Xrotation
		JOINT chest
		{
			OFFSET 0 4.72302 0
			CHANNELS 3 Zrotation Yrotation Xrotation
			JOINT neck
			{
				OFFSET 0 4.47788 0
				CHANNELS 3 Zrotation Yrotation Xrotation
				End Site
				{
					OFFSET 0.0 0.0 0.0
				}
			}
			JOINT right_shoulder
			{
				OFFSET -0.481 4.87 3.6622
				CHANNELS 3 Zrotation Yrotation Xrotation
				JOINT right_elbow
				{
					OFFSET 0 -5.49576 0
					CHANNELS 3 Zrotation Yrotation Xrotation
					JOINT right_wrist
					{
						OFFSET 0 -5.17894 0
						CHANNELS 3 Zrotation Yrotation Xrotation
						End Site
						{
							OFFSET 0.0 0.0 0.0
						}
					}
				}
			}
			JOINT left_shoulder
			{
				OFFSET -0.481 4.87 -3.6622
				CHANNELS 3 Zrotation Yrotation Xrotation
				JOINT left_elbow
				{
					OFFSET 0 -5.49576 0
					CHANNELS 3 Zrotation Yrotation Xrotation
					JOINT left_wrist
					{
						OFFSET 0 -5.17894 0
						CHANNELS 3 Zrotation Yrotation Xrotation
						End Site
						{
							OFFSET 0.0 0.0 0.0
						}
					}
				}
			}
		}
		JOINT right_hip
		{
			OFFSET 0 0 1.69774
			CHANNELS 3 Zrotation Yrotation Xrotation
			JOINT right_knee
			{
				OFFSET 0 -8.43092 0
				CHANNELS 3 Zrotation Yrotation Xrotation
				JOINT right_ankle
				{
					OFFSET 0 -8.1974 0
					CHANNELS 3 Zrotation Yrotation Xrotation
					End Site
					{
						OFFSET 0.0 0.0 0.0
					}
				}
			}
		}
		JOINT left_hip
		{
			OFFSET 0 0 -1.69774
			CHANNELS 3 Zrotation Yrotation Xrotation
			JOINT left_knee
			{
				OFFSET 0 -8.43092 0
				CHANNELS 3 Zrotation Yrotation Xrotation
				JOINT left_ankle
				{
					OFFSET 0 -8.1974 0
					CHANNELS 3 Zrotation Yrotation Xrotation
					End Site
					{
						OFFSET 0.0 0.0 0.0
					}
				}
			}
		}
	}
	JOINT red_arrow
	{
		OFFSET 0 0 0
		CHANNELS 3 Zrotation Yrotation Xrotation
		End Site
		{
			OFFSET 0.0 0.0 0.0
		}
	}
	JOINT blue_arrow
	{
		OFFSET 0 0 0
		CHANNELS 3 Zrotation Yrotation Xrotation
		End Site
		{
			OFFSET 0.0 0.0 0.0
		}
	}
}
MOTION
Frames: 5
Frame Time: 0.0333333333333333
-46.4348894620314 0 -2.53348308578134 0 5.43412760464744 0 0 17.566540157795 0 -0.161297317620441 -17.2687327282137 -1.76034406800776 -5.13277954708314 0.126680022614169 3.70404079552474 -16.8024853278595 -10.6325191472322 -3.6847528337371 11.1870094053312 -11.9122094226554 -35.7781895343541 2.41678389063356 0 0 0 0 0 -2.20108097106563 -6.57978017645533 27.1866896075334 -0.000177983300959735 0 0 0 0 0 0.884948282653927 0.0217412452904938 3.36196254752273 0.000530093486943485 0 0 -0.828671739821455 4.23117139611204 -1.55778593241423 13.0847072318995 1.42137656053895 1.22110891553888 6.05541582027222E-06 0 0 -19.5799679243357 0.301320078160324 0.908948836638893 0 0 0 0 0 0
-47.0619410663843 0 -2.69285247698426 0 4.69698011187386 0 0 17.5356812357903 0 -3.8631957892375 -13.9752264997046 -1.38019193074134 -8.37140097574934 -0.222524840363374 5.68435191470554 -17.2452106271774 -12.4684934962639 -4.13621757729781 12.2552999076987 -22.1022865677207 -53.6741901415139 -0.000155139697011923 0 0 0 0 0 -10.983740324784 -2.77775446853432 42.3818898910514 -0.000281563021755788 0 0 0 0 0 6.39578892861009 -1.7408673390772 3.63588699641534 0.000132223751067992 0 0 -2.77651014539936 3.19000260773556 -1.40595442746689 17.9007280871621 1.43007109008605 0.727023948839649 2.36890122772518E-05 0 0 -21.5253592609392 -1.84264789078914 1.3241841394935 0 0 0 0 0 0
-47.774114459753 0 -2.91054488383234 0 4.10547612680851 0 0 17.4970804452896 0 -7.52036914418204 -11.1443357895635 -0.704403997396085 -12.5625411543903 -0.542581125140813 7.31228978232735 -17.1322984103571 -12.0313379960668 -3.91729232557049 16.4034014344282 -32.0424761595671 -69.0966807023661 -0.128769196236493 0 0 0 0 0 -16.9478388074187 4.62387479580729 52.3600074399283 -0.000257634535389683 0 0 0 0 0 12.2351813975948 -4.93515079943008 2.91901515511587 0.00129058808930504 0 0 -5.09424496710681 3.98768651617196 -1.18494078629402 23.3399298110759 2.24986307250787 -0.5693865704964 2.54558137614705E-05 0 0 -25.9347132779335 -3.8174179766494 2.32280639226253 0 0 0 0 0 0
-48.6771440029144 0 -3.2184741191566 0 3.58182789484282 0 0 17.4441613912582 0 -12.0784833707238 -9.73331672500428 0.729304356666007 -18.3371614389421 -0.584416246237051 7.93512873470763 -16.0759253069233 -9.02681172571729 -2.19483551430609 20.3012320277483 -39.4143936708047 -75.0187962950746 -1.73989633250179E-05 0 0 0 0 0 -19.7150350557651 13.6057605942231 54.3089388564985 -4.1889751403256E-06 0 0 0 0 0 21.6647323249473 -8.01902830057824 0.784951422566762 -3.39776148588359 0 0 -7.27621082949676 7.96919420583288 -0.941846658063214 30.8287893165115 5.08307328694247 -2.06473360749036 1.81812857340171E-05 0 0 -33.3808760619242 -4.18262136228197 3.09427421687865 0 0 0 0 0 0
-49.6919564545155 0 -3.51654050797224 0 3.0777103639139 0 0 17.3069190859795 0 -17.4744707214509 -9.14384844514089 1.99761525824493 -24.3645392891253 -0.615441723337303 7.83067906246317 -12.9385633764798 -5.90114588564186 0.134282076976682 19.7548621013147 -43.6870802662079 -69.3532997821508 -5.02824862506218E-08 0 0 0 0 0 -21.7804275152796 22.3138691093219 50.8831042392581 -4.53269021680897E-08 0 0 0 0 0 35.6742644722054 -8.42109964729105 -1.5960731186888 -13.476487449454 0 0 -8.5234113381158 11.5973882944588 -1.06477120335889 42.3750304107203 7.6204710299063 -1.54734061728121 -6.88797086284377 0 0 -37.3614059862093 -3.13227278240689 3.88588199215618 0 0 0 0 0 0
